<mxfile host="app.diagrams.net" modified="2021-06-29T12:18:31.124Z" agent="5.0 (Windows NT 10.0; Win64; x64) AppleWebKit/537.36 (KHTML, like Gecko) Chrome/91.0.4472.77 Safari/537.36" etag="uSQzmQT-aNbyW2otkWlO" version="14.8.0" type="github">
  <diagram id="eGY769rpdTCRjJ_zANGm" name="Page-1">
    <mxGraphModel dx="1038" dy="547" grid="1" gridSize="10" guides="1" tooltips="1" connect="1" arrows="1" fold="1" page="1" pageScale="1" pageWidth="1169" pageHeight="827" math="0" shadow="0">
      <root>
        <mxCell id="0" />
        <mxCell id="1" parent="0" />
        <mxCell id="Jl2G2H4bN8PpytpsWYva-1" value="4" style="rounded=0;whiteSpace=wrap;html=1;sketch=1;fontFamily=中国式手写风;fontSize=24;fillColor=#FF0000;" vertex="1" parent="1">
          <mxGeometry x="182" y="190" width="50" height="50" as="geometry" />
        </mxCell>
        <mxCell id="Jl2G2H4bN8PpytpsWYva-2" value="6" style="rounded=0;whiteSpace=wrap;html=1;sketch=1;fontFamily=中国式手写风;fontSize=24;" vertex="1" parent="1">
          <mxGeometry x="282" y="190" width="50" height="50" as="geometry" />
        </mxCell>
        <mxCell id="Jl2G2H4bN8PpytpsWYva-3" value="2" style="rounded=0;whiteSpace=wrap;html=1;sketch=1;fontFamily=中国式手写风;fontSize=24;" vertex="1" parent="1">
          <mxGeometry x="382" y="190" width="50" height="50" as="geometry" />
        </mxCell>
        <mxCell id="Jl2G2H4bN8PpytpsWYva-4" value="3" style="rounded=0;whiteSpace=wrap;html=1;sketch=1;fontFamily=中国式手写风;fontSize=24;" vertex="1" parent="1">
          <mxGeometry x="491" y="190" width="50" height="50" as="geometry" />
        </mxCell>
        <mxCell id="Jl2G2H4bN8PpytpsWYva-5" value="1" style="rounded=0;whiteSpace=wrap;html=1;sketch=1;fontFamily=中国式手写风;fontSize=24;" vertex="1" parent="1">
          <mxGeometry x="602" y="190" width="50" height="50" as="geometry" />
        </mxCell>
        <mxCell id="Jl2G2H4bN8PpytpsWYva-6" value="5" style="rounded=0;whiteSpace=wrap;html=1;sketch=1;fontFamily=中国式手写风;fontSize=24;" vertex="1" parent="1">
          <mxGeometry x="722" y="190" width="50" height="50" as="geometry" />
        </mxCell>
        <mxCell id="Jl2G2H4bN8PpytpsWYva-7" value="7" style="rounded=0;whiteSpace=wrap;html=1;sketch=1;fontFamily=中国式手写风;fontSize=24;" vertex="1" parent="1">
          <mxGeometry x="832" y="190" width="50" height="50" as="geometry" />
        </mxCell>
        <mxCell id="Jl2G2H4bN8PpytpsWYva-8" value="8" style="rounded=0;whiteSpace=wrap;html=1;sketch=1;fontFamily=中国式手写风;fontSize=24;" vertex="1" parent="1">
          <mxGeometry x="938" y="190" width="50" height="50" as="geometry" />
        </mxCell>
        <mxCell id="Jl2G2H4bN8PpytpsWYva-10" value="&amp;gt; 4" style="rounded=0;whiteSpace=wrap;html=1;sketch=1;fontFamily=中国式手写风;fontSize=24;" vertex="1" parent="1">
          <mxGeometry x="182" y="300" width="256" height="50" as="geometry" />
        </mxCell>
        <mxCell id="Jl2G2H4bN8PpytpsWYva-11" value="4" style="rounded=0;whiteSpace=wrap;html=1;sketch=1;fontFamily=中国式手写风;fontSize=24;fillColor=#FF0000;" vertex="1" parent="1">
          <mxGeometry x="488" y="300" width="50" height="50" as="geometry" />
        </mxCell>
        <mxCell id="Jl2G2H4bN8PpytpsWYva-12" value="&amp;lt; 4" style="rounded=0;whiteSpace=wrap;html=1;sketch=1;fontFamily=中国式手写风;fontSize=24;" vertex="1" parent="1">
          <mxGeometry x="602" y="300" width="386" height="50" as="geometry" />
        </mxCell>
        <mxCell id="Jl2G2H4bN8PpytpsWYva-13" value="&lt;font color=&quot;#ff0000&quot;&gt;例如给出K=2&lt;/font&gt;" style="text;html=1;strokeColor=none;fillColor=none;align=center;verticalAlign=middle;whiteSpace=wrap;rounded=0;sketch=1;fontFamily=中国式手写风;fontSize=24;" vertex="1" parent="1">
          <mxGeometry x="90" y="110" width="260" height="90" as="geometry" />
        </mxCell>
        <mxCell id="Jl2G2H4bN8PpytpsWYva-14" value="此时只需在左侧寻找" style="text;html=1;strokeColor=none;fillColor=none;align=center;verticalAlign=middle;whiteSpace=wrap;rounded=0;sketch=1;fontFamily=中国式手写风;fontSize=24;fontColor=#FF0000;" vertex="1" parent="1">
          <mxGeometry x="195" y="410" width="230" height="66" as="geometry" />
        </mxCell>
        <mxCell id="Jl2G2H4bN8PpytpsWYva-15" value="2 &amp;lt; 4" style="text;html=1;strokeColor=none;fillColor=none;align=center;verticalAlign=middle;whiteSpace=wrap;rounded=0;sketch=1;fontFamily=中国式手写风;fontSize=24;fontColor=#FF0000;" vertex="1" parent="1">
          <mxGeometry x="220" y="396" width="160" height="36" as="geometry" />
        </mxCell>
        <mxCell id="Jl2G2H4bN8PpytpsWYva-16" value="" style="endArrow=classic;html=1;fontFamily=中国式手写风;fontSize=24;fontColor=#FF0000;exitX=0.5;exitY=0;exitDx=0;exitDy=0;entryX=0.459;entryY=1.02;entryDx=0;entryDy=0;entryPerimeter=0;curved=1;strokeColor=#FF0000;" edge="1" parent="1" source="Jl2G2H4bN8PpytpsWYva-15" target="Jl2G2H4bN8PpytpsWYva-10">
          <mxGeometry width="50" height="50" relative="1" as="geometry">
            <mxPoint x="285" y="414" as="sourcePoint" />
            <mxPoint x="310" y="364" as="targetPoint" />
          </mxGeometry>
        </mxCell>
      </root>
    </mxGraphModel>
  </diagram>
</mxfile>
